<?xml version="1.0" encoding="UTF-8" standalone="no"?>
<!DOCTYPE svg PUBLIC "-//W3C//DTD SVG 1.1//EN"
 "http://www.w3.org/Graphics/SVG/1.1/DTD/svg11.dtd">
<!-- Generated by graphviz version 2.38.0 (20140413.2041)
 -->
<!-- Title: G Pages: 1 -->
<svg width="2903pt" height="124pt"
 viewBox="0.00 0.00 2903.10 123.98" xmlns="http://www.w3.org/2000/svg" xmlns:xlink="http://www.w3.org/1999/xlink">
<g id="graph0" class="graph" transform="scale(1 1) rotate(0) translate(7.992 115.992)">
<title>G</title>
<polygon fill="#000000" stroke="none" points="-7.992,7.992 -7.992,-115.992 2895.11,-115.992 2895.11,7.992 -7.992,7.992"/>
<!-- index.js -->
<g id="node1" class="node"><title>index.js</title>
<ellipse fill="none" stroke="#c6c5fe" cx="1465.04" cy="-90" rx="42.4939" ry="18"/>
<text text-anchor="middle" x="1465.04" y="-86.3" font-family="Arial" font-size="14.00" fill="#c6c5fe">index.js</text>
</g>
<!-- ../node_modules/fun&#45;array/src/index.js -->
<g id="node2" class="node"><title>../node_modules/fun&#45;array/src/index.js</title>
<ellipse fill="none" stroke="#cfffac" cx="167.035" cy="-18" rx="167.07" ry="18"/>
<text text-anchor="middle" x="167.035" y="-14.3" font-family="Arial" font-size="14.00" fill="#cfffac">../node_modules/fun&#45;array/src/index.js</text>
</g>
<!-- index.js&#45;&gt;../node_modules/fun&#45;array/src/index.js -->
<g id="edge1" class="edge"><title>index.js&#45;&gt;../node_modules/fun&#45;array/src/index.js</title>
<path fill="none" stroke="#757575" d="M1422.96,-87.7578C1274.87,-83.2264 763.9,-66.2477 343.035,-36 326.934,-34.8428 310.021,-33.4437 293.31,-31.9509"/>
<polygon fill="#757575" stroke="#757575" points="293.215,-28.428 282.94,-31.0106 292.583,-35.3994 293.215,-28.428"/>
</g>
<!-- ../node_modules/fun&#45;function/src/index.js -->
<g id="node3" class="node"><title>../node_modules/fun&#45;function/src/index.js</title>
<ellipse fill="none" stroke="#cfffac" cx="531.035" cy="-18" rx="178.969" ry="18"/>
<text text-anchor="middle" x="531.035" y="-14.3" font-family="Arial" font-size="14.00" fill="#cfffac">../node_modules/fun&#45;function/src/index.js</text>
</g>
<!-- index.js&#45;&gt;../node_modules/fun&#45;function/src/index.js -->
<g id="edge2" class="edge"><title>index.js&#45;&gt;../node_modules/fun&#45;function/src/index.js</title>
<path fill="none" stroke="#757575" d="M1423.36,-86.3217C1310.12,-78.9832 987.257,-57.653 719.035,-36 702.378,-34.6553 684.898,-33.1718 667.583,-31.6582"/>
<polygon fill="#757575" stroke="#757575" points="667.683,-28.1536 657.415,-30.7643 667.07,-35.1267 667.683,-28.1536"/>
</g>
<!-- ../node_modules/fun&#45;object/src/index.js -->
<g id="node4" class="node"><title>../node_modules/fun&#45;object/src/index.js</title>
<ellipse fill="none" stroke="#cfffac" cx="900.035" cy="-18" rx="172.47" ry="18"/>
<text text-anchor="middle" x="900.035" y="-14.3" font-family="Arial" font-size="14.00" fill="#cfffac">../node_modules/fun&#45;object/src/index.js</text>
</g>
<!-- index.js&#45;&gt;../node_modules/fun&#45;object/src/index.js -->
<g id="edge3" class="edge"><title>index.js&#45;&gt;../node_modules/fun&#45;object/src/index.js</title>
<path fill="none" stroke="#757575" d="M1424.85,-84.0219C1340.85,-73.6137 1143.88,-49.2114 1016.58,-33.4393"/>
<polygon fill="#757575" stroke="#757575" points="1016.75,-29.9335 1006.4,-32.1773 1015.89,-36.8804 1016.75,-29.9335"/>
</g>
<!-- ../node_modules/fun&#45;predicate/src/index.js -->
<g id="node5" class="node"><title>../node_modules/fun&#45;predicate/src/index.js</title>
<ellipse fill="none" stroke="#cfffac" cx="1275.04" cy="-18" rx="185.467" ry="18"/>
<text text-anchor="middle" x="1275.04" y="-14.3" font-family="Arial" font-size="14.00" fill="#cfffac">../node_modules/fun&#45;predicate/src/index.js</text>
</g>
<!-- index.js&#45;&gt;../node_modules/fun&#45;predicate/src/index.js -->
<g id="edge4" class="edge"><title>index.js&#45;&gt;../node_modules/fun&#45;predicate/src/index.js</title>
<path fill="none" stroke="#757575" d="M1434.09,-77.5975C1405.85,-67.1957 1363.49,-51.589 1329.58,-39.0969"/>
<polygon fill="#757575" stroke="#757575" points="1330.41,-35.6695 1319.81,-35.4966 1327.99,-42.2379 1330.41,-35.6695"/>
</g>
<!-- ../node_modules/fun&#45;sample/src/index.js -->
<g id="node6" class="node"><title>../node_modules/fun&#45;sample/src/index.js</title>
<ellipse fill="none" stroke="#cfffac" cx="1655.04" cy="-18" rx="176.569" ry="18"/>
<text text-anchor="middle" x="1655.04" y="-14.3" font-family="Arial" font-size="14.00" fill="#cfffac">../node_modules/fun&#45;sample/src/index.js</text>
</g>
<!-- index.js&#45;&gt;../node_modules/fun&#45;sample/src/index.js -->
<g id="edge5" class="edge"><title>index.js&#45;&gt;../node_modules/fun&#45;sample/src/index.js</title>
<path fill="none" stroke="#757575" d="M1495.98,-77.5975C1524.22,-67.1957 1566.58,-51.589 1600.49,-39.0969"/>
<polygon fill="#757575" stroke="#757575" points="1602.09,-42.2379 1610.26,-35.4966 1599.67,-35.6695 1602.09,-42.2379"/>
</g>
<!-- ../node_modules/fun&#45;scalar/src/index.js -->
<g id="node7" class="node"><title>../node_modules/fun&#45;scalar/src/index.js</title>
<ellipse fill="none" stroke="#cfffac" cx="2021.04" cy="-18" rx="170.87" ry="18"/>
<text text-anchor="middle" x="2021.04" y="-14.3" font-family="Arial" font-size="14.00" fill="#cfffac">../node_modules/fun&#45;scalar/src/index.js</text>
</g>
<!-- index.js&#45;&gt;../node_modules/fun&#45;scalar/src/index.js -->
<g id="edge6" class="edge"><title>index.js&#45;&gt;../node_modules/fun&#45;scalar/src/index.js</title>
<path fill="none" stroke="#757575" d="M1505.02,-83.9658C1587.87,-73.5349 1780.97,-49.2237 1906.03,-33.4787"/>
<polygon fill="#757575" stroke="#757575" points="1906.56,-36.9406 1916.04,-32.2188 1905.68,-29.9955 1906.56,-36.9406"/>
</g>
<!-- ../node_modules/fun&#45;type/src/index.js -->
<g id="node8" class="node"><title>../node_modules/fun&#45;type/src/index.js</title>
<ellipse fill="none" stroke="#cfffac" cx="2374.04" cy="-18" rx="164.371" ry="18"/>
<text text-anchor="middle" x="2374.04" y="-14.3" font-family="Arial" font-size="14.00" fill="#cfffac">../node_modules/fun&#45;type/src/index.js</text>
</g>
<!-- index.js&#45;&gt;../node_modules/fun&#45;type/src/index.js -->
<g id="edge7" class="edge"><title>index.js&#45;&gt;../node_modules/fun&#45;type/src/index.js</title>
<path fill="none" stroke="#757575" d="M1506.56,-86.3902C1618.67,-79.263 1936.81,-58.4922 2201.04,-36 2216.21,-34.7086 2232.12,-33.266 2247.88,-31.782"/>
<polygon fill="#757575" stroke="#757575" points="2248.59,-35.2306 2258.22,-30.8019 2247.93,-28.2619 2248.59,-35.2306"/>
</g>
<!-- ../node_modules/guarded/src/index.js -->
<g id="node9" class="node"><title>../node_modules/guarded/src/index.js</title>
<ellipse fill="none" stroke="#cfffac" cx="2722.04" cy="-18" rx="165.171" ry="18"/>
<text text-anchor="middle" x="2722.04" y="-14.3" font-family="Arial" font-size="14.00" fill="#cfffac">../node_modules/guarded/src/index.js</text>
</g>
<!-- index.js&#45;&gt;../node_modules/guarded/src/index.js -->
<g id="edge8" class="edge"><title>index.js&#45;&gt;../node_modules/guarded/src/index.js</title>
<path fill="none" stroke="#757575" d="M1507.11,-87.6647C1651.84,-82.9163 2142.58,-65.5337 2547.04,-36 2563.17,-34.8218 2580.13,-33.4028 2596.87,-31.8932"/>
<polygon fill="#757575" stroke="#757575" points="2597.62,-35.3393 2607.26,-30.9429 2596.98,-28.3684 2597.62,-35.3393"/>
</g>
</g>
</svg>
